<?xml version="1.0" standalone="no"?>
<!DOCTYPE svg PUBLIC "-//W3C//DTD SVG 20010904//EN"
 "http://www.w3.org/TR/2001/REC-SVG-20010904/DTD/svg10.dtd">
<svg version="1.0" xmlns="http://www.w3.org/2000/svg"
 width="896.000000pt" height="896.000000pt" viewBox="0 0 896.000000 896.000000"
 preserveAspectRatio="xMidYMid meet">
<metadata>
Created by potrace 1.14, written by Peter Selinger 2001-2017
</metadata>
<g transform="translate(0.000000,896.000000) scale(0.100000,-0.100000)"
fill="#000000" stroke="none">
<path d="M304 8555 c-1 -5 -2 -1846 -1 -4090 l2 -4080 615 1 c338 0 635 4 660
8 73 11 182 68 244 127 31 30 56 60 56 66 0 7 3 13 8 13 7 0 15 16 46 92 23
54 37 179 25 214 -4 12 -5 25 -1 28 9 9 9 76 0 76 -4 0 -5 6 -2 14 10 25 11
106 2 106 -5 0 -6 5 -3 11 7 10 11 232 5 254 -1 6 -1 12 0 15 6 13 4 80 -2 80
-4 0 -5 7 -2 15 10 24 11 98 3 121 -4 12 -5 25 -1 28 9 10 8 76 -1 76 -5 0 -5
5 -1 11 9 15 9 143 0 157 -4 7 -3 12 1 12 8 0 9 95 3 125 -1 6 -1 12 0 15 6
13 4 80 -2 80 -4 0 -5 7 -2 15 10 24 11 98 3 121 -4 12 -5 25 -1 28 9 9 9 76
0 76 -4 0 -5 7 -2 15 9 23 10 116 2 121 -5 3 -5 10 -2 16 10 16 11 119 3 144
-4 12 -5 25 -1 28 9 9 9 76 0 76 -4 0 -5 7 -2 15 10 24 11 98 3 121 -4 12 -5
25 -1 28 9 10 8 76 -1 76 -5 0 -5 5 -1 11 9 15 9 143 0 157 -4 7 -3 12 1 12 8
0 9 95 3 125 -1 6 -1 12 0 15 6 13 4 80 -2 80 -4 0 -5 7 -2 15 10 24 11 98 3
121 -4 12 -5 25 -1 28 9 9 9 76 0 76 -4 0 -5 7 -2 15 9 23 10 116 2 121 -5 3
-5 10 -2 16 10 16 11 88 2 88 -4 0 -5 7 -2 15 10 24 11 98 3 121 -4 12 -5 25
-1 28 9 9 9 76 0 76 -4 0 -5 7 -2 15 10 24 11 98 3 121 -4 12 -5 25 -1 28 9 9
9 76 0 76 -4 0 -5 7 -2 15 10 24 11 98 3 121 -4 12 -5 25 -1 28 9 9 9 76 0 76
-4 0 -5 7 -2 15 10 24 11 98 3 121 -4 12 -5 25 -1 28 9 9 9 76 0 76 -4 0 -5 6
-2 14 9 24 11 106 2 106 -4 0 -5 7 -2 15 9 22 10 825 2 825 -4 0 -5 7 -2 15
10 24 11 98 3 121 -4 12 -5 25 -1 28 9 9 9 76 0 76 -4 0 -5 7 -2 15 10 24 11
98 3 121 -4 12 -5 25 -1 28 9 9 9 76 0 76 -4 0 -5 7 -2 15 10 24 11 98 3 121
-4 12 -5 25 -1 28 9 9 9 76 0 76 -4 0 -5 7 -2 15 10 24 11 98 3 121 -4 12 -5
25 -1 28 9 9 9 76 0 76 -4 0 -5 6 -2 14 9 24 11 106 2 106 -4 0 -5 7 -2 15 9
22 10 825 2 825 -4 0 -5 7 -2 15 10 24 11 98 3 121 -4 12 -5 25 -1 28 9 10 8
76 -1 76 -5 0 -6 4 -2 10 8 14 13 110 5 115 -4 2 -5 17 -3 32 5 31 -19 136
-40 174 -37 71 -122 169 -146 169 -6 0 -11 4 -11 9 0 15 -118 63 -190 77 -58
11 -1262 10 -1266 -1z"/>
<path d="M2984 8559 c-82 -17 -160 -83 -182 -156 -16 -51 -17 -4814 -1 -4882
6 -25 14 -55 19 -66 4 -11 13 -45 20 -75 12 -57 22 -94 41 -155 6 -19 13 -48
15 -63 3 -15 16 -65 29 -112 13 -47 26 -96 29 -110 11 -48 36 -145 47 -177 5
-18 12 -40 14 -50 2 -10 15 -63 29 -118 15 -55 28 -107 30 -115 19 -70 28
-107 47 -183 22 -88 26 -96 34 -61 8 34 94 358 104 392 5 17 7 32 4 32 -3 0 0
7 7 15 7 8 10 15 7 15 -3 0 6 39 19 88 14 48 26 96 28 107 2 11 6 27 9 35 4 8
11 35 17 60 6 25 13 52 15 60 5 15 33 123 39 150 2 8 9 35 16 60 7 25 14 52
15 60 2 8 14 51 26 95 12 44 22 87 23 95 1 9 6 21 10 29 5 7 8 1099 8 2426 0
1885 -2 2421 -12 2450 -15 46 -83 128 -108 131 -4 0 -20 6 -37 13 -32 14 -307
21 -361 10z"/>
<path d="M6345 8551 c-27 -9 -53 -17 -58 -19 -79 -21 -190 -153 -202 -241 -2
-14 -4 -26 -5 -26 -1 0 -3 -236 -3 -523 -2 -358 1 -526 9 -532 5 -5 45 -8 87
-7 44 1 78 -2 80 -8 3 -9 1 -452 -2 -465 0 -3 -13 -7 -28 -8 -73 -6 -248 -80
-343 -145 -100 -69 -184 -155 -251 -257 -33 -50 -85 -145 -80 -145 1 0 -3 -13
-9 -30 -62 -157 -72 -357 -25 -535 9 -36 20 -69 23 -75 4 -5 7 -12 8 -15 0 -3
6 -18 12 -33 7 -16 12 -30 12 -32 0 -8 65 -110 73 -113 4 -2 7 -8 7 -13 0 -10
17 -32 76 -96 l41 -45 -54 -122 c-30 -66 -56 -125 -57 -131 -1 -5 -12 -31 -24
-57 -12 -26 -22 -49 -22 -51 0 -3 -12 -31 -27 -63 -15 -33 -28 -61 -28 -64 -1
-3 -9 -21 -17 -40 -23 -50 -45 -101 -137 -315 -45 -104 -88 -203 -95 -220 -8
-16 -24 -52 -35 -80 -12 -27 -26 -59 -31 -70 -41 -92 -63 -144 -99 -230 -23
-55 -53 -122 -66 -150 -46 -100 -88 -200 -88 -212 0 -7 -4 -13 -9 -13 -4 0 -8
-4 -8 -9 0 -9 -227 -538 -286 -669 -13 -28 -35 -80 -49 -115 -14 -34 -32 -75
-40 -92 -8 -16 -31 -68 -51 -115 -20 -47 -45 -103 -54 -125 -17 -37 -46 -138
-57 -194 -2 -14 -6 -28 -8 -31 -2 -4 -7 -22 -10 -41 -3 -19 -17 -79 -31 -134
-14 -55 -27 -107 -29 -115 -2 -8 -11 -44 -20 -80 -9 -36 -18 -76 -21 -90 -3
-14 -26 -108 -51 -210 -53 -220 -53 -217 -60 -255 -3 -16 -9 -38 -14 -47 -5
-10 -7 -18 -5 -18 3 0 2 -10 -3 -23 -5 -13 -12 -40 -15 -59 -3 -19 -10 -47
-16 -62 -5 -15 -10 -29 -10 -31 0 -5 39 -22 140 -63 70 -29 76 -29 90 -13 21
23 60 79 60 85 0 3 19 33 43 68 23 35 67 101 97 148 30 47 58 90 62 95 5 6 21
30 37 55 16 25 67 104 113 175 47 72 117 180 156 240 39 61 75 115 79 120 23
29 63 96 63 104 0 6 6 14 13 18 11 7 77 133 77 147 0 3 18 44 40 91 22 47 40
90 40 94 0 4 11 30 24 57 31 65 32 71 16 124 -27 90 -45 241 -31 255 2 3 6 22
8 42 3 35 28 126 42 148 3 6 6 12 7 15 2 16 29 60 36 60 4 0 7 4 5 9 -3 13
102 133 149 169 23 17 70 46 104 64 53 27 66 39 82 78 11 25 26 58 33 75 43
95 65 146 65 150 0 2 11 28 24 57 46 102 64 143 91 208 15 36 36 85 47 110 11
25 26 59 33 75 7 17 25 56 39 88 14 32 26 59 26 61 0 2 14 34 32 72 17 38 33
78 35 88 2 11 10 27 18 36 8 9 15 21 15 27 0 5 18 52 41 104 49 112 62 142 64
149 1 3 16 36 33 74 18 38 32 71 32 73 0 2 12 30 26 61 14 31 37 85 51 120 14
34 31 62 39 62 8 0 13 -3 12 -7 -1 -5 7 -28 19 -53 11 -25 33 -74 48 -110 15
-36 35 -83 45 -105 10 -22 55 -125 100 -230 45 -104 90 -208 100 -230 10 -22
30 -69 45 -105 15 -36 40 -93 56 -128 16 -35 29 -65 29 -67 0 -2 12 -30 26
-62 14 -32 32 -71 39 -88 8 -16 27 -60 44 -98 16 -37 31 -71 32 -75 1 -4 9
-25 19 -47 10 -22 39 -89 65 -150 26 -60 56 -129 66 -152 20 -43 41 -94 44
-103 1 -3 13 -31 28 -64 15 -32 27 -61 27 -64 0 -3 11 -28 24 -56 13 -28 39
-85 56 -126 18 -41 40 -93 50 -115 9 -22 43 -101 75 -175 79 -181 72 -172 120
-149 22 10 43 18 46 19 4 0 24 8 45 17 22 9 41 17 44 18 3 0 41 15 85 32 116
47 139 56 145 58 6 2 50 19 95 38 17 6 32 12 35 13 3 0 16 5 30 11 14 6 37 16
53 22 15 6 27 16 27 23 0 7 -16 46 -35 85 -19 40 -35 77 -35 82 0 6 -9 26 -20
46 -11 19 -19 36 -19 38 1 4 -19 54 -40 100 -47 106 -114 259 -116 267 0 3 -9
23 -19 45 -10 22 -22 49 -26 60 -5 11 -23 51 -39 88 -17 38 -31 71 -31 73 0 3
-11 29 -24 57 -14 29 -39 86 -57 127 -17 41 -42 98 -55 127 -13 28 -24 54 -24
57 0 3 -11 29 -24 58 -13 29 -61 139 -106 243 -45 105 -91 210 -102 235 -19
42 -39 89 -58 135 -5 11 -21 47 -36 80 -33 74 -47 108 -48 115 -1 3 -9 21 -18
40 -9 19 -28 64 -43 100 -15 36 -38 86 -51 113 -13 26 -21 47 -19 47 2 0 -10
27 -26 60 -16 33 -29 67 -29 75 0 8 -6 15 -12 15 -7 0 -4 6 6 12 69 40 226
291 242 386 3 15 7 34 10 42 12 31 24 120 25 193 2 82 -8 171 -26 230 -8 26
-14 48 -14 50 1 4 -21 61 -31 82 -5 11 -12 30 -15 43 -4 12 -11 22 -16 22 -5
0 -9 5 -9 10 0 25 -105 167 -158 214 -13 12 -43 38 -65 58 -23 21 -48 38 -54
38 -7 0 -13 4 -13 8 0 27 -275 142 -362 151 -4 1 -6 108 -5 238 l2 237 88 -2
87 -1 -3 542 c-1 298 -6 556 -10 572 -44 169 -267 290 -432 236z"/>
<path d="M8195 2113 c-104 -42 -196 -76 -202 -76 -7 0 -13 -3 -13 -7 0 -7 -80
-35 -92 -32 -5 1 -8 -2 -8 -6 0 -5 -19 -15 -42 -22 -24 -8 -47 -17 -53 -21
-10 -7 -17 -9 -34 -9 -12 0 -2 -38 16 -67 8 -12 14 -24 14 -27 0 -6 23 -66 44
-112 8 -16 31 -68 51 -115 20 -46 43 -100 52 -119 8 -19 17 -39 18 -45 1 -5
16 -39 32 -75 31 -67 64 -141 67 -150 7 -20 45 -108 75 -175 10 -22 24 -54 32
-70 20 -46 69 -110 98 -128 74 -47 110 -64 155 -71 78 -12 131 -8 187 13 13 5
26 9 31 10 16 2 63 32 93 58 97 87 140 225 104 339 -17 57 -152 371 -188 439
-9 17 -16 32 -16 35 1 5 -19 56 -41 105 -35 79 -55 126 -85 195 -18 41 -41 94
-51 117 -11 24 -24 54 -29 68 -5 14 -13 25 -17 25 -5 -1 -93 -35 -198 -77z"/>
</g>
</svg>
